<?xml version="1.0" encoding="utf-8"?>
<!-- Generator: Adobe Illustrator 16.0.0, SVG Export Plug-In . SVG Version: 6.00 Build 0)  -->
<!DOCTYPE svg PUBLIC "-//W3C//DTD SVG 1.1//EN" "http://www.w3.org/Graphics/SVG/1.1/DTD/svg11.dtd">
<svg version="1.1" id="Layer_1" xmlns="http://www.w3.org/2000/svg" xmlns:xlink="http://www.w3.org/1999/xlink" x="0px" y="0px"
	 width="612px" height="792px" viewBox="0 0 612 792" enable-background="new 0 0 612 792" xml:space="preserve">
<title>ic_bimber</title>
<g id="Layer_2">
	<g id="bottle">
		<g>
			<path d="M175.726,696.322c0,0-50.271-120.834-86.372-225.105"/>
		</g>
		<g opacity="0.3">
			<path d="M526.108,264.619l-97.082-26.435c-2.659-0.729-5.659-0.729-6.69,0l-124.659,87.247c0.292,3.388,0.449,6.812,0.449,10.273
				c0,66.384-122.4,360.642-122.4,360.642l355.093-428.375C531.597,267.036,529.46,265.53,526.108,264.619z"/>
		</g>
		<polygon points="175.726,696.322 175.726,696.322 175.726,696.322 		"/>
		<path fill="#FD5C63" d="M175.726,215.465c-67.599,0-122.4,53.854-122.4,120.214c0,23.849,15.786,77.083,36.028,135.514
			l208.323-145.763C292.371,263.854,239.804,215.465,175.726,215.465z"/>
		<path fill="#FD5C63" d="M297.677,325.431L89.354,471.217c36.101,104.271,86.372,225.105,86.372,225.105l0,0
			c0,0,122.4-294.234,122.4-360.643C298.126,332.243,297.968,328.818,297.677,325.431z"/>
		<path fill="#FD5C63" d="M239.246,144.429c0,33.198-25.5,63.75-63.75,63.75s-63.75-30.552-63.75-63.75
			c0-33.199,25.451-63.75,63.75-63.75C213.794,80.679,239.246,111.23,239.246,144.429z"/>
		<g opacity="0.3">
			<path d="M504.434,250.339l-45.427-11.937c-2.757-0.729-4.237-1.895-3.315-2.611l55.761-43.131c0.595-0.461,2.975-0.461,5.318,0
				l38.056,7.431c2.55,0.498,4.25,1.324,3.765,1.833l-47.151,48.414C510.699,251.141,507.469,251.141,504.434,250.339z"/>
		</g>
	</g>
</g>
</svg>
